<?xml version="1.0" encoding="utf-8"?>
<!-- Generator: Adobe Illustrator 16.0.4, SVG Export Plug-In . SVG Version: 6.00 Build 0)  -->
<!DOCTYPE svg PUBLIC "-//W3C//DTD SVG 1.1//EN" "http://www.w3.org/Graphics/SVG/1.1/DTD/svg11.dtd">
<svg version="1.1" id="gr_x5F_webPerf" xmlns="http://www.w3.org/2000/svg" xmlns:xlink="http://www.w3.org/1999/xlink" x="0px"
	 y="0px" width="250px" height="250px" viewBox="0 0 250 250" enable-background="new 0 0 250 250" xml:space="preserve">
<g id="gr_x5F_big_68_">
	<path id="gr_279_" fill="#F3BA48" d="M237.664,172.702c0,9.539-6.76,21.251-15.021,26.019l-82.621,47.701
		c-8.263,4.771-21.78,4.771-30.043,0l-82.621-47.701c-8.263-4.768-15.022-16.479-15.022-26.019V77.298
		c0-9.539,6.759-21.251,15.022-26.019l82.621-47.702c8.263-4.771,21.78-4.771,30.043,0l82.621,47.702
		c8.262,4.768,15.021,16.479,15.021,26.019V172.702z"/>
	<path fill="#FFFFFF" d="M131.728,161.978c0.803-3.422,3.906-7.726,6.899-9.563c0,0,9.291-5.703,15.224-11.639
		c24.938-24.938,19.371-51.552,19.371-51.552c-0.719-3.436-4.123-6.84-7.559-7.559c0,0-26.614-5.566-51.552,19.371
		c-5.937,5.933-11.639,15.224-11.639,15.224c-1.838,2.993-6.142,6.097-9.563,6.899c0,0-8.984,2.103-14.837,7.956
		c-2.207,2.208-2.207,2.208-2.207,2.208c-1.793,2.779-0.426,4.555,3.034,3.948c0,0,8.754-1.535,17.809,0
		c0.659,4.279,3.215,9.2,7.46,13.448c4.248,4.244,9.169,6.801,13.448,7.46c1.535,9.055,0,17.809,0,17.809
		c-0.606,3.46,1.169,4.827,3.948,3.034c0,0,0,0,2.208-2.207C129.625,170.962,131.728,161.978,131.728,161.978z M138.09,116.807
		c-4.189-4.188-4.192-10.969-0.011-15.154c4.188-4.185,10.976-4.185,15.161,0c4.186,4.186,4.178,10.966-0.007,15.154
		C149.048,120.989,142.271,120.989,138.09,116.807z M103.101,160.418c0.816,0.43,1.147,1.602,0.736,2.599
		c0,0-1.692,4.14-4.088,6.532c-7.439,7.439-18.907,6.421-18.907,6.421c-0.973-0.083-1.842-0.952-1.925-1.929
		c0,0-1.019-11.464,6.421-18.903c2.396-2.396,6.532-4.088,6.532-4.088c0.997-0.411,2.169-0.08,2.599,0.739
		c0,0,1.607,3.053,3.592,5.037S103.101,160.418,103.101,160.418z"/>
</g>
</svg>
