<?xml version="1.0" encoding="utf-8"?>
<!-- Generator: Adobe Illustrator 16.0.4, SVG Export Plug-In . SVG Version: 6.00 Build 0)  -->
<!DOCTYPE svg PUBLIC "-//W3C//DTD SVG 1.1//EN" "http://www.w3.org/Graphics/SVG/1.1/DTD/svg11.dtd">
<svg version="1.1" id="gr_x5F_icon25_x5F_webPerf" xmlns="http://www.w3.org/2000/svg" xmlns:xlink="http://www.w3.org/1999/xlink"
	 x="0px" y="0px" width="250px" height="250px" viewBox="0 0 250 250" enable-background="new 0 0 250 250" xml:space="preserve">
<path fill="#FFFFFF" d="M142.658,202.724c1.992-8.495,9.699-19.181,17.131-23.744c0,0,23.07-14.16,37.799-28.898
	c61.916-61.917,48.096-127.998,48.096-127.998c-1.785-8.53-10.236-16.982-18.768-18.767c0,0-66.078-13.821-127.996,48.097
	C84.181,66.143,70.022,89.211,70.022,89.211c-4.562,7.432-15.248,15.138-23.744,17.131c0,0-22.307,5.22-36.838,19.753
	c-5.48,5.481-5.48,5.481-5.48,5.481c-4.451,6.9-1.056,11.31,7.534,9.804c0,0,21.735-3.812,44.217,0
	c1.636,10.624,7.981,22.841,18.521,33.391c10.547,10.537,22.765,16.886,33.39,18.522c3.812,22.48,0,44.216,0,44.216
	c-1.505,8.59,2.903,11.984,9.803,7.532c0,0,0,0,5.483-5.478C137.439,225.032,142.658,202.724,142.658,202.724z M158.455,90.571
	c-10.4-10.4-10.408-27.233-0.025-37.626c10.398-10.39,27.25-10.39,37.645,0c10.391,10.393,10.371,27.226-0.018,37.626
	C185.662,100.954,168.838,100.954,158.455,90.571z M71.582,198.851c2.026,1.068,2.849,3.979,1.829,6.453
	c0,0-4.203,10.278-10.151,16.221c-18.471,18.47-46.944,15.94-46.944,15.94c-2.415-0.207-4.573-2.365-4.778-4.789
	c0,0-2.53-28.464,15.942-46.935c5.947-5.946,16.219-10.149,16.219-10.149c2.475-1.021,5.385-0.199,6.451,1.835
	c0,0,3.992,7.579,8.919,12.507C63.996,194.86,71.582,198.851,71.582,198.851z"/>
</svg>
